<svg xmlns="http://www.w3.org/2000/svg" viewBox="0 0 512 512" fill="#333333">
  <path d="M256 0c4.6 0 9.2 1 13.4 2.9L457.7 82.8c22 9.3 38.4 31 38.3 57.2c-.5 99.2-41.3 280.7-213.6 363.2c-16.7 8-36.1 8-52.8 0C57.3 420.7 16.5 239.2 16 140c-.1-26.2 16.3-47.9 38.3-57.2L242.7 2.9C246.8 1 251.4 0 256 0zm0 66.8V444.8C394 378 431.1 230.1 432 141.4L256 66.8l0 0z"/>
  <path d="M160 144c0 26.5 21.5 48 48 48s48-21.5 48-48s-21.5-48-48-48s-48 21.5-48 48zM304 144c0 26.5 21.5 48 48 48s48-21.5 48-48s-21.5-48-48-48s-48 21.5-48 48zM168 320c0-22.1 17.9-40 40-40h16c22.1 0 40 17.9 40 40v8c0 8.8-7.2 16-16 16H184c-8.8 0-16-7.2-16-16v-8zm144-40h16c22.1 0 40 17.9 40 40v8c0 8.8-7.2 16-16 16H336c-8.8 0-16-7.2-16-16v-8c0-22.1 17.9-40 40-40z"/>
</svg>